{
    "asset" : {
        "generator" : "Khronos glTF Blender I/O v1.3.48",
        "version" : "2.0"
    },
    "scene" : 0,
    "scenes" : [
        {
            "name" : "Scene",
            "nodes" : [
                7
            ]
        }
    ],
    "nodes" : [
        {
            "name" : "Bird_LeftWing_Tip",
            "rotation" : [
                0,
                -0.25543418526649475,
                0,
                0.9668265581130981
            ],
            "translation" : [
                4.510693550109863,
                0.23135137557983398,
                3.5762786865234375e-07
            ]
        },
        {
            "children" : [
                0
            ],
            "name" : "Bird_LeftWing_Pivot",
            "rotation" : [
                0,
                0.1748194843530655,
                0,
                0.9846004843711853
            ],
            "translation" : [
                0.8469966053962708,
                -0.19944095611572266,
                -2.1567214680828783e-09
            ]
        },
        {
            "name" : "Bird_RightWing_Tip",
            "rotation" : [
                3.480303246971754e-24,
                -0.9500176906585693,
                1.0892311333670378e-24,
                0.3121960163116455
            ],
            "scale" : [
                1,
                1.0000001192092896,
                1
            ],
            "translation" : [
                4.177523612976074,
                0.2233734130859375,
                1.7881393432617188e-07
            ]
        },
        {
            "children" : [
                2
            ],
            "name" : "Bird_RightWing_Pivot",
            "rotation" : [
                -7.963956633062132e-17,
                0.9500178098678589,
                6.746482429004534e-17,
                0.31219595670700073
            ],
            "translation" : [
                -0.793582558631897,
                -0.20741868019104004,
                -0.32048508524894714
            ]
        },
        {
            "children" : [
                1,
                3
            ],
            "name" : "Bird_Body",
            "rotation" : [
                0,
                -0.6463749408721924,
                0,
                0.7630199790000916
            ],
            "scale" : [
                1.0000001192092896,
                1,
                1.0000001192092896
            ],
            "translation" : [
                3.8988709449768066,
                -4.76837158203125e-07,
                2.0485215657117806e-07
            ]
        },
        {
            "children" : [
                4
            ],
            "name" : "Bird_Root",
            "rotation" : [
                -0.5,
                0.5000000596046448,
                -0.5000000596046448,
                0.5
            ],
            "scale" : [
                1,
                0.9999999403953552,
                1
            ],
            "translation" : [
                -0.00548853212967515,
                5.035918235778809,
                -2.427117347717285
            ]
        },
        {
            "mesh" : 0,
            "name" : "BirdRetop:polySurface1",
            "skin" : 0
        },
        {
            "children" : [
                6,
                5
            ],
            "name" : "Armature",
            "rotation" : [
                0.49349135160446167,
                0.5064250230789185,
                -0.5064250826835632,
                0.4934912621974945
            ],
            "scale" : [
                0.09999999403953552,
                0.09999999403953552,
                0.09999999403953552
            ],
            "translation" : [
                0.12829992175102234,
                0,
                4.906190395355225
            ]
        }
    ],
    "animations" : [
        {
            "channels" : [
                {
                    "sampler" : 0,
                    "target" : {
                        "node" : 5,
                        "path" : "translation"
                    }
                },
                {
                    "sampler" : 1,
                    "target" : {
                        "node" : 5,
                        "path" : "rotation"
                    }
                },
                {
                    "sampler" : 2,
                    "target" : {
                        "node" : 5,
                        "path" : "scale"
                    }
                },
                {
                    "sampler" : 3,
                    "target" : {
                        "node" : 4,
                        "path" : "translation"
                    }
                },
                {
                    "sampler" : 4,
                    "target" : {
                        "node" : 4,
                        "path" : "rotation"
                    }
                },
                {
                    "sampler" : 5,
                    "target" : {
                        "node" : 4,
                        "path" : "scale"
                    }
                },
                {
                    "sampler" : 6,
                    "target" : {
                        "node" : 1,
                        "path" : "translation"
                    }
                },
                {
                    "sampler" : 7,
                    "target" : {
                        "node" : 1,
                        "path" : "rotation"
                    }
                },
                {
                    "sampler" : 8,
                    "target" : {
                        "node" : 1,
                        "path" : "scale"
                    }
                },
                {
                    "sampler" : 9,
                    "target" : {
                        "node" : 0,
                        "path" : "translation"
                    }
                },
                {
                    "sampler" : 10,
                    "target" : {
                        "node" : 0,
                        "path" : "rotation"
                    }
                },
                {
                    "sampler" : 11,
                    "target" : {
                        "node" : 0,
                        "path" : "scale"
                    }
                },
                {
                    "sampler" : 12,
                    "target" : {
                        "node" : 3,
                        "path" : "translation"
                    }
                },
                {
                    "sampler" : 13,
                    "target" : {
                        "node" : 3,
                        "path" : "rotation"
                    }
                },
                {
                    "sampler" : 14,
                    "target" : {
                        "node" : 3,
                        "path" : "scale"
                    }
                },
                {
                    "sampler" : 15,
                    "target" : {
                        "node" : 2,
                        "path" : "translation"
                    }
                },
                {
                    "sampler" : 16,
                    "target" : {
                        "node" : 2,
                        "path" : "rotation"
                    }
                },
                {
                    "sampler" : 17,
                    "target" : {
                        "node" : 2,
                        "path" : "scale"
                    }
                },
                {
                    "sampler" : 18,
                    "target" : {
                        "node" : 7,
                        "path" : "translation"
                    }
                },
                {
                    "sampler" : 19,
                    "target" : {
                        "node" : 7,
                        "path" : "rotation"
                    }
                },
                {
                    "sampler" : 20,
                    "target" : {
                        "node" : 7,
                        "path" : "scale"
                    }
                }
            ],
            "name" : "Armature|Take 001|BaseLayer",
            "samplers" : [
                {
                    "input" : 7,
                    "interpolation" : "LINEAR",
                    "output" : 8
                },
                {
                    "input" : 7,
                    "interpolation" : "LINEAR",
                    "output" : 9
                },
                {
                    "input" : 7,
                    "interpolation" : "LINEAR",
                    "output" : 10
                },
                {
                    "input" : 7,
                    "interpolation" : "LINEAR",
                    "output" : 11
                },
                {
                    "input" : 7,
                    "interpolation" : "LINEAR",
                    "output" : 12
                },
                {
                    "input" : 7,
                    "interpolation" : "LINEAR",
                    "output" : 13
                },
                {
                    "input" : 7,
                    "interpolation" : "LINEAR",
                    "output" : 14
                },
                {
                    "input" : 7,
                    "interpolation" : "LINEAR",
                    "output" : 15
                },
                {
                    "input" : 7,
                    "interpolation" : "LINEAR",
                    "output" : 16
                },
                {
                    "input" : 7,
                    "interpolation" : "LINEAR",
                    "output" : 17
                },
                {
                    "input" : 7,
                    "interpolation" : "LINEAR",
                    "output" : 18
                },
                {
                    "input" : 7,
                    "interpolation" : "LINEAR",
                    "output" : 19
                },
                {
                    "input" : 7,
                    "interpolation" : "LINEAR",
                    "output" : 20
                },
                {
                    "input" : 7,
                    "interpolation" : "LINEAR",
                    "output" : 21
                },
                {
                    "input" : 7,
                    "interpolation" : "LINEAR",
                    "output" : 22
                },
                {
                    "input" : 7,
                    "interpolation" : "LINEAR",
                    "output" : 23
                },
                {
                    "input" : 7,
                    "interpolation" : "LINEAR",
                    "output" : 24
                },
                {
                    "input" : 7,
                    "interpolation" : "LINEAR",
                    "output" : 25
                },
                {
                    "input" : 26,
                    "interpolation" : "LINEAR",
                    "output" : 27
                },
                {
                    "input" : 26,
                    "interpolation" : "LINEAR",
                    "output" : 28
                },
                {
                    "input" : 26,
                    "interpolation" : "LINEAR",
                    "output" : 29
                }
            ]
        }
    ],
    "materials" : [
        {
            "doubleSided" : true,
            "emissiveFactor" : [
                0,
                0,
                0
            ],
            "name" : "blinn2",
            "pbrMetallicRoughness" : {
                "baseColorTexture" : {
                    "index" : 0,
                    "texCoord" : 0
                },
                "metallicFactor" : 0,
                "roughnessFactor" : 1
            }
        }
    ],
    "meshes" : [
        {
            "name" : "Mesh",
            "primitives" : [
                {
                    "attributes" : {
                        "POSITION" : 0,
                        "NORMAL" : 1,
                        "TEXCOORD_0" : 2,
                        "JOINTS_0" : 3,
                        "WEIGHTS_0" : 4
                    },
                    "indices" : 5,
                    "material" : 0
                }
            ]
        }
    ],
    "textures" : [
        {
            "source" : 0
        }
    ],
    "images" : [
        {
            "bufferView" : 6,
            "mimeType" : "image/jpeg",
            "name" : "BirdUVTexture"
        }
    ],
    "skins" : [
        {
            "inverseBindMatrices" : 6,
            "joints" : [
                5,
                4,
                1,
                0,
                3,
                2
            ],
            "name" : "Armature"
        }
    ],
    "accessors" : [
        {
            "bufferView" : 0,
            "componentType" : 5126,
            "count" : 1737,
            "max" : [
                0.5148065090179443,
                0.28217363357543945,
                5.368141174316406
            ],
            "min" : [
                -0.0397111177444458,
                0.07414188235998154,
                4.438668727874756
            ],
            "type" : "VEC3"
        },
        {
            "bufferView" : 1,
            "componentType" : 5126,
            "count" : 1737,
            "type" : "VEC3"
        },
        {
            "bufferView" : 2,
            "componentType" : 5126,
            "count" : 1737,
            "type" : "VEC2"
        },
        {
            "bufferView" : 3,
            "componentType" : 5123,
            "count" : 1737,
            "type" : "VEC4"
        },
        {
            "bufferView" : 4,
            "componentType" : 5126,
            "count" : 1737,
            "type" : "VEC4"
        },
        {
            "bufferView" : 5,
            "componentType" : 5123,
            "count" : 6804,
            "type" : "SCALAR"
        },
        {
            "bufferView" : 7,
            "componentType" : 5126,
            "count" : 6,
            "type" : "MAT4"
        },
        {
            "bufferView" : 8,
            "componentType" : 5126,
            "count" : 241,
            "max" : [
                10
            ],
            "min" : [
                0
            ],
            "type" : "SCALAR"
        },
        {
            "bufferView" : 9,
            "componentType" : 5126,
            "count" : 241,
            "type" : "VEC3"
        },
        {
            "bufferView" : 10,
            "componentType" : 5126,
            "count" : 241,
            "type" : "VEC4"
        },
        {
            "bufferView" : 11,
            "componentType" : 5126,
            "count" : 241,
            "type" : "VEC3"
        },
        {
            "bufferView" : 12,
            "componentType" : 5126,
            "count" : 241,
            "type" : "VEC3"
        },
        {
            "bufferView" : 13,
            "componentType" : 5126,
            "count" : 241,
            "type" : "VEC4"
        },
        {
            "bufferView" : 14,
            "componentType" : 5126,
            "count" : 241,
            "type" : "VEC3"
        },
        {
            "bufferView" : 15,
            "componentType" : 5126,
            "count" : 241,
            "type" : "VEC3"
        },
        {
            "bufferView" : 16,
            "componentType" : 5126,
            "count" : 241,
            "type" : "VEC4"
        },
        {
            "bufferView" : 17,
            "componentType" : 5126,
            "count" : 241,
            "type" : "VEC3"
        },
        {
            "bufferView" : 18,
            "componentType" : 5126,
            "count" : 241,
            "type" : "VEC3"
        },
        {
            "bufferView" : 19,
            "componentType" : 5126,
            "count" : 241,
            "type" : "VEC4"
        },
        {
            "bufferView" : 20,
            "componentType" : 5126,
            "count" : 241,
            "type" : "VEC3"
        },
        {
            "bufferView" : 21,
            "componentType" : 5126,
            "count" : 241,
            "type" : "VEC3"
        },
        {
            "bufferView" : 22,
            "componentType" : 5126,
            "count" : 241,
            "type" : "VEC4"
        },
        {
            "bufferView" : 23,
            "componentType" : 5126,
            "count" : 241,
            "type" : "VEC3"
        },
        {
            "bufferView" : 24,
            "componentType" : 5126,
            "count" : 241,
            "type" : "VEC3"
        },
        {
            "bufferView" : 25,
            "componentType" : 5126,
            "count" : 241,
            "type" : "VEC4"
        },
        {
            "bufferView" : 26,
            "componentType" : 5126,
            "count" : 241,
            "type" : "VEC3"
        },
        {
            "bufferView" : 27,
            "componentType" : 5126,
            "count" : 239,
            "max" : [
                9.916666666666666
            ],
            "min" : [
                0
            ],
            "type" : "SCALAR"
        },
        {
            "bufferView" : 28,
            "componentType" : 5126,
            "count" : 239,
            "type" : "VEC3"
        },
        {
            "bufferView" : 29,
            "componentType" : 5126,
            "count" : 239,
            "type" : "VEC4"
        },
        {
            "bufferView" : 30,
            "componentType" : 5126,
            "count" : 239,
            "type" : "VEC3"
        }
    ],
    "bufferViews" : [
        {
            "buffer" : 0,
            "byteLength" : 20844,
            "byteOffset" : 0
        },
        {
            "buffer" : 0,
            "byteLength" : 20844,
            "byteOffset" : 20844
        },
        {
            "buffer" : 0,
            "byteLength" : 13896,
            "byteOffset" : 41688
        },
        {
            "buffer" : 0,
            "byteLength" : 13896,
            "byteOffset" : 55584
        },
        {
            "buffer" : 0,
            "byteLength" : 27792,
            "byteOffset" : 69480
        },
        {
            "buffer" : 0,
            "byteLength" : 13608,
            "byteOffset" : 97272
        },
        {
            "buffer" : 0,
            "byteLength" : 185767,
            "byteOffset" : 110880
        },
        {
            "buffer" : 0,
            "byteLength" : 384,
            "byteOffset" : 296648
        },
        {
            "buffer" : 0,
            "byteLength" : 964,
            "byteOffset" : 297032
        },
        {
            "buffer" : 0,
            "byteLength" : 2892,
            "byteOffset" : 297996
        },
        {
            "buffer" : 0,
            "byteLength" : 3856,
            "byteOffset" : 300888
        },
        {
            "buffer" : 0,
            "byteLength" : 2892,
            "byteOffset" : 304744
        },
        {
            "buffer" : 0,
            "byteLength" : 2892,
            "byteOffset" : 307636
        },
        {
            "buffer" : 0,
            "byteLength" : 3856,
            "byteOffset" : 310528
        },
        {
            "buffer" : 0,
            "byteLength" : 2892,
            "byteOffset" : 314384
        },
        {
            "buffer" : 0,
            "byteLength" : 2892,
            "byteOffset" : 317276
        },
        {
            "buffer" : 0,
            "byteLength" : 3856,
            "byteOffset" : 320168
        },
        {
            "buffer" : 0,
            "byteLength" : 2892,
            "byteOffset" : 324024
        },
        {
            "buffer" : 0,
            "byteLength" : 2892,
            "byteOffset" : 326916
        },
        {
            "buffer" : 0,
            "byteLength" : 3856,
            "byteOffset" : 329808
        },
        {
            "buffer" : 0,
            "byteLength" : 2892,
            "byteOffset" : 333664
        },
        {
            "buffer" : 0,
            "byteLength" : 2892,
            "byteOffset" : 336556
        },
        {
            "buffer" : 0,
            "byteLength" : 3856,
            "byteOffset" : 339448
        },
        {
            "buffer" : 0,
            "byteLength" : 2892,
            "byteOffset" : 343304
        },
        {
            "buffer" : 0,
            "byteLength" : 2892,
            "byteOffset" : 346196
        },
        {
            "buffer" : 0,
            "byteLength" : 3856,
            "byteOffset" : 349088
        },
        {
            "buffer" : 0,
            "byteLength" : 2892,
            "byteOffset" : 352944
        },
        {
            "buffer" : 0,
            "byteLength" : 956,
            "byteOffset" : 355836
        },
        {
            "buffer" : 0,
            "byteLength" : 2868,
            "byteOffset" : 356792
        },
        {
            "buffer" : 0,
            "byteLength" : 3824,
            "byteOffset" : 359660
        },
        {
            "buffer" : 0,
            "byteLength" : 2868,
            "byteOffset" : 363484
        }
    ],
    "buffers" : [
        {
            "byteLength" : 366352,
            "uri" : "data:application/octet-stream;base64,"
        }
    ]
}
