{
    "asset" : {
        "generator" : "Khronos glTF Blender I/O v1.3.48",
        "version" : "2.0"
    },
    "scene" : 0,
    "scenes" : [
        {
            "name" : "Scene",
            "nodes" : [
                0
            ]
        }
    ],
    "nodes" : [
        {
            "mesh" : 0,
            "name" : "Cube"
        }
    ],
    "materials" : [
        {
            "doubleSided" : true,
            "emissiveFactor" : [
                0,
                0,
                0
            ],
            "name" : "bumper",
            "pbrMetallicRoughness" : {
                "baseColorFactor" : [
                    0,
                    0,
                    0,
                    1
                ],
                "metallicFactor" : 0,
                "roughnessFactor" : 0.5
            }
        },
        {
            "doubleSided" : true,
            "emissiveFactor" : [
                0,
                0,
                0
            ],
            "name" : "body",
            "pbrMetallicRoughness" : {
                "baseColorFactor" : [
                    0,
                    0,
                    0,
                    1
                ],
                "metallicFactor" : 0.2774566411972046,
                "roughnessFactor" : 0.8323699235916138
            }
        },
        {
            "doubleSided" : true,
            "emissiveFactor" : [
                0,
                0,
                0
            ],
            "name" : "paint",
            "pbrMetallicRoughness" : {
                "baseColorFactor" : [
                    0.8000000715255737,
                    0,
                    0.002029338851571083,
                    1
                ],
                "metallicFactor" : 0.08670520037412643,
                "roughnessFactor" : 0.46531790494918823
            }
        },
        {
            "alphaMode" : "BLEND",
            "doubleSided" : true,
            "emissiveFactor" : [
                0,
                0,
                0
            ],
            "name" : "glass",
            "pbrMetallicRoughness" : {
                "baseColorFactor" : [
                    0,
                    0.5659842491149902,
                    0.8000000715255737,
                    1
                ],
                "metallicFactor" : 0,
                "roughnessFactor" : 0.5
            }
        },
        {
            "doubleSided" : true,
            "emissiveFactor" : [
                0,
                0,
                0
            ],
            "name" : "Material.001",
            "pbrMetallicRoughness" : {
                "baseColorFactor" : [
                    0.6350966691970825,
                    0,
                    0.0019189801532775164,
                    1
                ],
                "metallicFactor" : 0,
                "roughnessFactor" : 0.5
            }
        },
        {
            "doubleSided" : true,
            "emissiveFactor" : [
                0,
                0,
                0
            ],
            "name" : "mirror",
            "pbrMetallicRoughness" : {
                "baseColorFactor" : [
                    0.2812044322490692,
                    0.2812044322490692,
                    0.2812044322490692,
                    1
                ],
                "metallicFactor" : 0,
                "roughnessFactor" : 0
            }
        },
        {
            "doubleSided" : true,
            "emissiveFactor" : [
                0,
                0,
                0
            ],
            "name" : "bumper.001",
            "pbrMetallicRoughness" : {
                "baseColorFactor" : [
                    0.2812051475048065,
                    0.2812051475048065,
                    0.2812051475048065,
                    1
                ],
                "metallicFactor" : 0,
                "roughnessFactor" : 0
            }
        },
        {
            "doubleSided" : true,
            "emissiveFactor" : [
                0,
                0,
                0
            ],
            "name" : "wheel",
            "pbrMetallicRoughness" : {
                "baseColorFactor" : [
                    0,
                    0,
                    0,
                    1
                ],
                "metallicFactor" : 0,
                "roughnessFactor" : 0.849711000919342
            }
        },
        {
            "doubleSided" : true,
            "emissiveFactor" : [
                0,
                0,
                0
            ],
            "name" : "wheel silver",
            "pbrMetallicRoughness" : {
                "baseColorFactor" : [
                    0.3493271768093109,
                    0.3493271768093109,
                    0.3493271768093109,
                    1
                ],
                "metallicFactor" : 0.45086708664894104,
                "roughnessFactor" : 0
            }
        },
        {
            "doubleSided" : true,
            "emissiveFactor" : [
                12.829833030700684,
                12.829833030700684,
                2.605008125305176
            ],
            "name" : "frontlight",
            "pbrMetallicRoughness" : {
                "baseColorFactor" : [
                    0.7721139788627625,
                    0.8000000715255737,
                    0.44241559505462646,
                    2
                ],
                "metallicFactor" : 0,
                "roughnessFactor" : 0.5
            }
        },
        {
            "doubleSided" : true,
            "emissiveFactor" : [
                12.829833030700684,
                0,
                0.003836235962808132
            ],
            "name" : "rearlight",
            "pbrMetallicRoughness" : {
                "baseColorFactor" : [
                    0.8000000715255737,
                    0.059536684304475784,
                    0.036436982452869415,
                    2
                ],
                "metallicFactor" : 0,
                "roughnessFactor" : 0.5
            }
        }
    ],
    "meshes" : [
        {
            "name" : "Cube.001",
            "primitives" : [
                {
                    "attributes" : {
                        "POSITION" : 0,
                        "NORMAL" : 1,
                        "TEXCOORD_0" : 2
                    },
                    "indices" : 3,
                    "material" : 0
                },
                {
                    "attributes" : {
                        "POSITION" : 4,
                        "NORMAL" : 5,
                        "TEXCOORD_0" : 6
                    },
                    "indices" : 7,
                    "material" : 1
                },
                {
                    "attributes" : {
                        "POSITION" : 8,
                        "NORMAL" : 9,
                        "TEXCOORD_0" : 10
                    },
                    "indices" : 11,
                    "material" : 2
                },
                {
                    "attributes" : {
                        "POSITION" : 12,
                        "NORMAL" : 13,
                        "TEXCOORD_0" : 14
                    },
                    "indices" : 15,
                    "material" : 3
                },
                {
                    "attributes" : {
                        "POSITION" : 16,
                        "NORMAL" : 17,
                        "TEXCOORD_0" : 18
                    },
                    "indices" : 19,
                    "material" : 4
                },
                {
                    "attributes" : {
                        "POSITION" : 20,
                        "NORMAL" : 21,
                        "TEXCOORD_0" : 22
                    },
                    "indices" : 23,
                    "material" : 5
                },
                {
                    "attributes" : {
                        "POSITION" : 24,
                        "NORMAL" : 25,
                        "TEXCOORD_0" : 26
                    },
                    "indices" : 27,
                    "material" : 6
                },
                {
                    "attributes" : {
                        "POSITION" : 28,
                        "NORMAL" : 29,
                        "TEXCOORD_0" : 30
                    },
                    "indices" : 31,
                    "material" : 7
                },
                {
                    "attributes" : {
                        "POSITION" : 32,
                        "NORMAL" : 33,
                        "TEXCOORD_0" : 34
                    },
                    "indices" : 35,
                    "material" : 8
                },
                {
                    "attributes" : {
                        "POSITION" : 36,
                        "NORMAL" : 37,
                        "TEXCOORD_0" : 38
                    },
                    "indices" : 39,
                    "material" : 9
                },
                {
                    "attributes" : {
                        "POSITION" : 40,
                        "NORMAL" : 41,
                        "TEXCOORD_0" : 42
                    },
                    "indices" : 43,
                    "material" : 10
                }
            ]
        }
    ],
    "accessors" : [
        {
            "bufferView" : 0,
            "componentType" : 5126,
            "count" : 822,
            "max" : [
                0.8137381076812744,
                1.2795228958129883,
                2.186631202697754
            ],
            "min" : [
                -0.8137381076812744,
                0.413546621799469,
                -1.0074042081832886
            ],
            "type" : "VEC3"
        },
        {
            "bufferView" : 1,
            "componentType" : 5126,
            "count" : 822,
            "type" : "VEC3"
        },
        {
            "bufferView" : 2,
            "componentType" : 5126,
            "count" : 822,
            "type" : "VEC2"
        },
        {
            "bufferView" : 3,
            "componentType" : 5123,
            "count" : 1281,
            "type" : "SCALAR"
        },
        {
            "bufferView" : 4,
            "componentType" : 5126,
            "count" : 455,
            "max" : [
                0.7862352132797241,
                1.1461986303329468,
                2.226194381713867
            ],
            "min" : [
                -0.7862352132797241,
                0.25116926431655884,
                -0.9556551575660706
            ],
            "type" : "VEC3"
        },
        {
            "bufferView" : 5,
            "componentType" : 5126,
            "count" : 455,
            "type" : "VEC3"
        },
        {
            "bufferView" : 6,
            "componentType" : 5126,
            "count" : 455,
            "type" : "VEC2"
        },
        {
            "bufferView" : 7,
            "componentType" : 5123,
            "count" : 816,
            "type" : "SCALAR"
        },
        {
            "bufferView" : 8,
            "componentType" : 5126,
            "count" : 1027,
            "max" : [
                0.7840903997421265,
                1.5784680843353271,
                2.225445508956909
            ],
            "min" : [
                -0.7912486791610718,
                0.4183931350708008,
                -0.9970710873603821
            ],
            "type" : "VEC3"
        },
        {
            "bufferView" : 9,
            "componentType" : 5126,
            "count" : 1027,
            "type" : "VEC3"
        },
        {
            "bufferView" : 10,
            "componentType" : 5126,
            "count" : 1027,
            "type" : "VEC2"
        },
        {
            "bufferView" : 11,
            "componentType" : 5123,
            "count" : 1755,
            "type" : "SCALAR"
        },
        {
            "bufferView" : 12,
            "componentType" : 5126,
            "count" : 76,
            "max" : [
                0.6608645915985107,
                1.5145611763000488,
                0.8956052660942078
            ],
            "min" : [
                -0.6608645915985107,
                1.0150506496429443,
                -0.9621474146842957
            ],
            "type" : "VEC3"
        },
        {
            "bufferView" : 13,
            "componentType" : 5126,
            "count" : 76,
            "type" : "VEC3"
        },
        {
            "bufferView" : 14,
            "componentType" : 5126,
            "count" : 76,
            "type" : "VEC2"
        },
        {
            "bufferView" : 15,
            "componentType" : 5123,
            "count" : 144,
            "type" : "SCALAR"
        },
        {
            "bufferView" : 16,
            "componentType" : 5126,
            "count" : 62,
            "max" : [
                0.7594042420387268,
                1.5188366174697876,
                0.8483873605728149
            ],
            "min" : [
                -0.7594042420387268,
                0.5705593824386597,
                -0.026945360004901886
            ],
            "type" : "VEC3"
        },
        {
            "bufferView" : 17,
            "componentType" : 5126,
            "count" : 62,
            "type" : "VEC3"
        },
        {
            "bufferView" : 18,
            "componentType" : 5126,
            "count" : 62,
            "type" : "VEC2"
        },
        {
            "bufferView" : 19,
            "componentType" : 5123,
            "count" : 150,
            "type" : "SCALAR"
        },
        {
            "bufferView" : 20,
            "componentType" : 5126,
            "count" : 22,
            "max" : [
                0.7844513654708862,
                1.2664682865142822,
                0.7692381143569946
            ],
            "min" : [
                -0.7844513654708862,
                1.1247789859771729,
                0.7692381143569946
            ],
            "type" : "VEC3"
        },
        {
            "bufferView" : 21,
            "componentType" : 5126,
            "count" : 22,
            "type" : "VEC3"
        },
        {
            "bufferView" : 22,
            "componentType" : 5126,
            "count" : 22,
            "type" : "VEC2"
        },
        {
            "bufferView" : 23,
            "componentType" : 5123,
            "count" : 36,
            "type" : "SCALAR"
        },
        {
            "bufferView" : 24,
            "componentType" : 5126,
            "count" : 127,
            "max" : [
                0.6885436773300171,
                0.5304284691810608,
                2.425734519958496
            ],
            "min" : [
                -0.6885436773300171,
                0.41163235902786255,
                2.178781270980835
            ],
            "type" : "VEC3"
        },
        {
            "bufferView" : 25,
            "componentType" : 5126,
            "count" : 127,
            "type" : "VEC3"
        },
        {
            "bufferView" : 26,
            "componentType" : 5126,
            "count" : 127,
            "type" : "VEC2"
        },
        {
            "bufferView" : 27,
            "componentType" : 5123,
            "count" : 228,
            "type" : "SCALAR"
        },
        {
            "bufferView" : 28,
            "componentType" : 5126,
            "count" : 3966,
            "max" : [
                0.7373219728469849,
                1.0564976930618286,
                2.054307699203491
            ],
            "min" : [
                -0.7373219728469849,
                0.005084812641143799,
                -1.2310093641281128
            ],
            "type" : "VEC3"
        },
        {
            "bufferView" : 29,
            "componentType" : 5126,
            "count" : 3966,
            "type" : "VEC3"
        },
        {
            "bufferView" : 30,
            "componentType" : 5126,
            "count" : 3966,
            "type" : "VEC2"
        },
        {
            "bufferView" : 31,
            "componentType" : 5123,
            "count" : 6210,
            "type" : "SCALAR"
        },
        {
            "bufferView" : 32,
            "componentType" : 5126,
            "count" : 2394,
            "max" : [
                0.7497241497039795,
                0.9505420923233032,
                1.9483522176742554
            ],
            "min" : [
                -0.7497241497039795,
                0.11104041337966919,
                -1.2434114217758179
            ],
            "type" : "VEC3"
        },
        {
            "bufferView" : 33,
            "componentType" : 5126,
            "count" : 2394,
            "type" : "VEC3"
        },
        {
            "bufferView" : 34,
            "componentType" : 5126,
            "count" : 2394,
            "type" : "VEC2"
        },
        {
            "bufferView" : 35,
            "componentType" : 5123,
            "count" : 3810,
            "type" : "SCALAR"
        },
        {
            "bufferView" : 36,
            "componentType" : 5126,
            "count" : 512,
            "max" : [
                0.6639572978019714,
                0.9252079725265503,
                2.1980135440826416
            ],
            "min" : [
                -0.6639572978019714,
                0.7980501055717468,
                2.134434700012207
            ],
            "type" : "VEC3"
        },
        {
            "bufferView" : 37,
            "componentType" : 5126,
            "count" : 512,
            "type" : "VEC3"
        },
        {
            "bufferView" : 38,
            "componentType" : 5126,
            "count" : 512,
            "type" : "VEC2"
        },
        {
            "bufferView" : 39,
            "componentType" : 5123,
            "count" : 756,
            "type" : "SCALAR"
        },
        {
            "bufferView" : 40,
            "componentType" : 5126,
            "count" : 80,
            "max" : [
                0.5936412811279297,
                0.8618850111961365,
                -1.0074042081832886
            ],
            "min" : [
                -0.5936412811279297,
                0.7164698243141174,
                -1.0172779560089111
            ],
            "type" : "VEC3"
        },
        {
            "bufferView" : 41,
            "componentType" : 5126,
            "count" : 80,
            "type" : "VEC3"
        },
        {
            "bufferView" : 42,
            "componentType" : 5126,
            "count" : 80,
            "type" : "VEC2"
        },
        {
            "bufferView" : 43,
            "componentType" : 5123,
            "count" : 132,
            "type" : "SCALAR"
        }
    ],
    "bufferViews" : [
        {
            "buffer" : 0,
            "byteLength" : 9864,
            "byteOffset" : 0
        },
        {
            "buffer" : 0,
            "byteLength" : 9864,
            "byteOffset" : 9864
        },
        {
            "buffer" : 0,
            "byteLength" : 6576,
            "byteOffset" : 19728
        },
        {
            "buffer" : 0,
            "byteLength" : 2562,
            "byteOffset" : 26304
        },
        {
            "buffer" : 0,
            "byteLength" : 5460,
            "byteOffset" : 28868
        },
        {
            "buffer" : 0,
            "byteLength" : 5460,
            "byteOffset" : 34328
        },
        {
            "buffer" : 0,
            "byteLength" : 3640,
            "byteOffset" : 39788
        },
        {
            "buffer" : 0,
            "byteLength" : 1632,
            "byteOffset" : 43428
        },
        {
            "buffer" : 0,
            "byteLength" : 12324,
            "byteOffset" : 45060
        },
        {
            "buffer" : 0,
            "byteLength" : 12324,
            "byteOffset" : 57384
        },
        {
            "buffer" : 0,
            "byteLength" : 8216,
            "byteOffset" : 69708
        },
        {
            "buffer" : 0,
            "byteLength" : 3510,
            "byteOffset" : 77924
        },
        {
            "buffer" : 0,
            "byteLength" : 912,
            "byteOffset" : 81436
        },
        {
            "buffer" : 0,
            "byteLength" : 912,
            "byteOffset" : 82348
        },
        {
            "buffer" : 0,
            "byteLength" : 608,
            "byteOffset" : 83260
        },
        {
            "buffer" : 0,
            "byteLength" : 288,
            "byteOffset" : 83868
        },
        {
            "buffer" : 0,
            "byteLength" : 744,
            "byteOffset" : 84156
        },
        {
            "buffer" : 0,
            "byteLength" : 744,
            "byteOffset" : 84900
        },
        {
            "buffer" : 0,
            "byteLength" : 496,
            "byteOffset" : 85644
        },
        {
            "buffer" : 0,
            "byteLength" : 300,
            "byteOffset" : 86140
        },
        {
            "buffer" : 0,
            "byteLength" : 264,
            "byteOffset" : 86440
        },
        {
            "buffer" : 0,
            "byteLength" : 264,
            "byteOffset" : 86704
        },
        {
            "buffer" : 0,
            "byteLength" : 176,
            "byteOffset" : 86968
        },
        {
            "buffer" : 0,
            "byteLength" : 72,
            "byteOffset" : 87144
        },
        {
            "buffer" : 0,
            "byteLength" : 1524,
            "byteOffset" : 87216
        },
        {
            "buffer" : 0,
            "byteLength" : 1524,
            "byteOffset" : 88740
        },
        {
            "buffer" : 0,
            "byteLength" : 1016,
            "byteOffset" : 90264
        },
        {
            "buffer" : 0,
            "byteLength" : 456,
            "byteOffset" : 91280
        },
        {
            "buffer" : 0,
            "byteLength" : 47592,
            "byteOffset" : 91736
        },
        {
            "buffer" : 0,
            "byteLength" : 47592,
            "byteOffset" : 139328
        },
        {
            "buffer" : 0,
            "byteLength" : 31728,
            "byteOffset" : 186920
        },
        {
            "buffer" : 0,
            "byteLength" : 12420,
            "byteOffset" : 218648
        },
        {
            "buffer" : 0,
            "byteLength" : 28728,
            "byteOffset" : 231068
        },
        {
            "buffer" : 0,
            "byteLength" : 28728,
            "byteOffset" : 259796
        },
        {
            "buffer" : 0,
            "byteLength" : 19152,
            "byteOffset" : 288524
        },
        {
            "buffer" : 0,
            "byteLength" : 7620,
            "byteOffset" : 307676
        },
        {
            "buffer" : 0,
            "byteLength" : 6144,
            "byteOffset" : 315296
        },
        {
            "buffer" : 0,
            "byteLength" : 6144,
            "byteOffset" : 321440
        },
        {
            "buffer" : 0,
            "byteLength" : 4096,
            "byteOffset" : 327584
        },
        {
            "buffer" : 0,
            "byteLength" : 1512,
            "byteOffset" : 331680
        },
        {
            "buffer" : 0,
            "byteLength" : 960,
            "byteOffset" : 333192
        },
        {
            "buffer" : 0,
            "byteLength" : 960,
            "byteOffset" : 334152
        },
        {
            "buffer" : 0,
            "byteLength" : 640,
            "byteOffset" : 335112
        },
        {
            "buffer" : 0,
            "byteLength" : 264,
            "byteOffset" : 335752
        }
    ],
    "buffers" : [
        {
            "byteLength" : 336016,
            "uri" : "data:application/octet-stream;base64,"
        }
    ]
}
