{
    "asset" : {
        "generator" : "Khronos glTF Blender I/O v1.3.48",
        "version" : "2.0"
    },
    "scene" : 0,
    "scenes" : [
        {
            "name" : "Scene",
            "nodes" : [
                0
            ]
        }
    ],
    "nodes" : [
        {
            "mesh" : 0,
            "name" : "Landscape.002"
        }
    ],
    "materials" : [
        {
            "emissiveFactor" : [
                0,
                0,
                0
            ],
            "name" : "Material.001",
            "pbrMetallicRoughness" : {
                "baseColorFactor" : [
                    0.09493903815746307,
                    0.2989320755004883,
                    0.09121004492044449,
                    1
                ],
                "metallicFactor" : 0,
                "roughnessFactor" : 1
            }
        },
        {
            "emissiveFactor" : [
                0,
                0,
                0
            ],
            "name" : "Material.002",
            "pbrMetallicRoughness" : {
                "baseColorFactor" : [
                    0.3762560784816742,
                    0.1535843163728714,
                    0.06790444254875183,
                    1
                ],
                "metallicFactor" : 0,
                "roughnessFactor" : 1
            }
        }
    ],
    "meshes" : [
        {
            "name" : "Landscape.002",
            "primitives" : [
                {
                    "attributes" : {
                        "POSITION" : 0,
                        "NORMAL" : 1
                    },
                    "indices" : 2,
                    "material" : 0
                },
                {
                    "attributes" : {
                        "POSITION" : 3,
                        "NORMAL" : 4
                    },
                    "indices" : 5,
                    "material" : 1
                }
            ]
        }
    ],
    "accessors" : [
        {
            "bufferView" : 0,
            "componentType" : 5126,
            "count" : 92181,
            "max" : [
                10,
                4.388628005981445,
                10.000003814697266
            ],
            "min" : [
                -10,
                -0.03808699920773506,
                -10.026176452636719
            ],
            "type" : "VEC3"
        },
        {
            "bufferView" : 1,
            "componentType" : 5126,
            "count" : 92181,
            "type" : "VEC3"
        },
        {
            "bufferView" : 2,
            "componentType" : 5125,
            "count" : 92181,
            "type" : "SCALAR"
        },
        {
            "bufferView" : 3,
            "componentType" : 5126,
            "count" : 4593,
            "max" : [
                1.0550583600997925,
                3.5235953330993652,
                4.172043800354004
            ],
            "min" : [
                -4.965337753295898,
                0.7281329035758972,
                -7.659026622772217
            ],
            "type" : "VEC3"
        },
        {
            "bufferView" : 4,
            "componentType" : 5126,
            "count" : 4593,
            "type" : "VEC3"
        },
        {
            "bufferView" : 5,
            "componentType" : 5123,
            "count" : 4593,
            "type" : "SCALAR"
        }
    ],
    "bufferViews" : [
        {
            "buffer" : 0,
            "byteLength" : 1106172,
            "byteOffset" : 0
        },
        {
            "buffer" : 0,
            "byteLength" : 1106172,
            "byteOffset" : 1106172
        },
        {
            "buffer" : 0,
            "byteLength" : 368724,
            "byteOffset" : 2212344
        },
        {
            "buffer" : 0,
            "byteLength" : 55116,
            "byteOffset" : 2581068
        },
        {
            "buffer" : 0,
            "byteLength" : 55116,
            "byteOffset" : 2636184
        },
        {
            "buffer" : 0,
            "byteLength" : 9186,
            "byteOffset" : 2691300
        }
    ],
    "buffers" : [
        {
            "byteLength" : 2700488,
            "uri" : "data:application/octet-stream;base64,"
        }
    ]
}
