{
    "asset" : {
        "generator" : "Khronos glTF Blender I/O v1.3.48",
        "version" : "2.0"
    },
    "scene" : 0,
    "scenes" : [
        {
            "name" : "Scene",
            "nodes" : [
                0
            ]
        }
    ],
    "nodes" : [
        {
            "mesh" : 0,
            "name" : "tree"
        }
    ],
    "materials" : [
        {
            "doubleSided" : true,
            "emissiveFactor" : [
                0,
                0,
                0
            ],
            "name" : "brown",
            "pbrMetallicRoughness" : {
                "baseColorFactor" : [
                    0.20131085813045502,
                    0.06013510003685951,
                    0.01566656492650509,
                    1
                ],
                "metallicFactor" : 0,
                "roughnessFactor" : 1
            }
        },
        {
            "doubleSided" : true,
            "emissiveFactor" : [
                0,
                0,
                0
            ],
            "name" : "green 1.001",
            "pbrMetallicRoughness" : {
                "baseColorFactor" : [
                    0.11612291634082794,
                    0.9210680723190308,
                    0.2119690179824829,
                    1
                ],
                "metallicFactor" : 0,
                "roughnessFactor" : 1
            }
        },
        {
            "doubleSided" : true,
            "emissiveFactor" : [
                0,
                0,
                0
            ],
            "name" : "green 1",
            "pbrMetallicRoughness" : {
                "baseColorFactor" : [
                    0.05393747612833977,
                    0.3957674205303192,
                    0.09558458626270294,
                    1
                ],
                "metallicFactor" : 0,
                "roughnessFactor" : 1
            }
        }
    ],
    "meshes" : [
        {
            "name" : "Cube.001",
            "primitives" : [
                {
                    "attributes" : {
                        "POSITION" : 0,
                        "NORMAL" : 1,
                        "TEXCOORD_0" : 2
                    },
                    "indices" : 3,
                    "material" : 0
                },
                {
                    "attributes" : {
                        "POSITION" : 4,
                        "NORMAL" : 5,
                        "TEXCOORD_0" : 6
                    },
                    "indices" : 7,
                    "material" : 1
                },
                {
                    "attributes" : {
                        "POSITION" : 8,
                        "NORMAL" : 9,
                        "TEXCOORD_0" : 10
                    },
                    "indices" : 11,
                    "material" : 2
                }
            ]
        }
    ],
    "accessors" : [
        {
            "bufferView" : 0,
            "componentType" : 5126,
            "count" : 1062,
            "max" : [
                1.4472274780273438,
                5.034643650054932,
                4.987931251525879
            ],
            "min" : [
                -1.31184720993042,
                0.03479071706533432,
                1.125679612159729
            ],
            "type" : "VEC3"
        },
        {
            "bufferView" : 1,
            "componentType" : 5126,
            "count" : 1062,
            "type" : "VEC3"
        },
        {
            "bufferView" : 2,
            "componentType" : 5126,
            "count" : 1062,
            "type" : "VEC2"
        },
        {
            "bufferView" : 3,
            "componentType" : 5123,
            "count" : 1566,
            "type" : "SCALAR"
        },
        {
            "bufferView" : 4,
            "componentType" : 5126,
            "count" : 360,
            "max" : [
                2.526315212249756,
                7.071389675140381,
                5.731740951538086
            ],
            "min" : [
                -2.076427459716797,
                3.8558313846588135,
                0.3745872974395752
            ],
            "type" : "VEC3"
        },
        {
            "bufferView" : 5,
            "componentType" : 5126,
            "count" : 360,
            "type" : "VEC3"
        },
        {
            "bufferView" : 6,
            "componentType" : 5126,
            "count" : 360,
            "type" : "VEC2"
        },
        {
            "bufferView" : 7,
            "componentType" : 5123,
            "count" : 360,
            "type" : "SCALAR"
        },
        {
            "bufferView" : 8,
            "componentType" : 5126,
            "count" : 300,
            "max" : [
                2.0456459522247314,
                6.709347248077393,
                5.443556785583496
            ],
            "min" : [
                -1.8510634899139404,
                3.6711537837982178,
                1.2369279861450195
            ],
            "type" : "VEC3"
        },
        {
            "bufferView" : 9,
            "componentType" : 5126,
            "count" : 300,
            "type" : "VEC3"
        },
        {
            "bufferView" : 10,
            "componentType" : 5126,
            "count" : 300,
            "type" : "VEC2"
        },
        {
            "bufferView" : 11,
            "componentType" : 5123,
            "count" : 300,
            "type" : "SCALAR"
        }
    ],
    "bufferViews" : [
        {
            "buffer" : 0,
            "byteLength" : 12744,
            "byteOffset" : 0
        },
        {
            "buffer" : 0,
            "byteLength" : 12744,
            "byteOffset" : 12744
        },
        {
            "buffer" : 0,
            "byteLength" : 8496,
            "byteOffset" : 25488
        },
        {
            "buffer" : 0,
            "byteLength" : 3132,
            "byteOffset" : 33984
        },
        {
            "buffer" : 0,
            "byteLength" : 4320,
            "byteOffset" : 37116
        },
        {
            "buffer" : 0,
            "byteLength" : 4320,
            "byteOffset" : 41436
        },
        {
            "buffer" : 0,
            "byteLength" : 2880,
            "byteOffset" : 45756
        },
        {
            "buffer" : 0,
            "byteLength" : 720,
            "byteOffset" : 48636
        },
        {
            "buffer" : 0,
            "byteLength" : 3600,
            "byteOffset" : 49356
        },
        {
            "buffer" : 0,
            "byteLength" : 3600,
            "byteOffset" : 52956
        },
        {
            "buffer" : 0,
            "byteLength" : 2400,
            "byteOffset" : 56556
        },
        {
            "buffer" : 0,
            "byteLength" : 600,
            "byteOffset" : 58956
        }
    ],
    "buffers" : [
        {
            "byteLength" : 59556,
            "uri" : "data:application/octet-stream;base64,"
        }
    ]
}
